<svg xmlns="http://www.w3.org/2000/svg" xmlns:xlink="http://www.w3.org/1999/xlink" id="Ebene_1" x="0px" y="0px" viewBox="0 0 405 55" style="enable-background:new 0 0 405 55;" xml:space="preserve"><style type="text/css">	.st0{fill:#FFFFFF;}</style><g>	<path class="st0" d="M404.1,25.2c-0.7,0.7-1.4,1.1-2.3,1.1c-0.8,0-1.5-0.1-1.9-0.4c-0.5-0.3-0.9-0.6-1.3-1s-0.7-0.7-1.1-1  s-1-0.4-1.7-0.4c-0.6,0-1.2,0.2-1.8,0.6c-0.6,0.4-1.1,1-1.6,1.6c-0.5,0.7-1,1.4-1.4,2.2c-0.4,0.8-0.8,1.6-1.1,2.4v21.9  c0.2,0.5,0.5,0.8,1,1.1s1.1,0.4,1.7,0.5s1.3,0.2,2,0.2s1.3,0.1,1.8,0.2V55h-17.1v-0.8c1.2-0.1,2.2-0.3,3-0.7s1.3-0.9,1.3-1.8V26.2  c0-0.4,0-0.7-0.1-0.9c-0.1-0.2-0.3-0.4-0.6-0.7c-0.5-0.3-1-0.6-1.6-1s-1.2-0.7-1.8-1v-0.5l10-3.9h0.5L389.7,29h0.2  c0.3-0.6,0.7-1.5,1.2-2.7c0.6-1.2,1.3-2.3,2.1-3.5c0.9-1.2,1.9-2.2,3.1-3.1s2.6-1.3,4.2-1.3c1.3,0,2.3,0.4,3.2,1.1  c0.9,0.8,1.3,1.7,1.3,2.9C405.1,23.6,404.7,24.5,404.1,25.2z"></path>	<path class="st0" d="M374.6,47.4c-0.7,1.4-1.7,2.7-2.9,3.8c-1.2,1.2-2.7,2.1-4.4,2.9c-1.7,0.8-3.6,1.1-5.7,1.1  c-2.6,0-4.9-0.5-7.1-1.4c-2.1-1-3.9-2.3-5.4-4.1s-2.7-3.8-3.5-6.2s-1.2-4.9-1.2-7.5c0-2.1,0.4-4.2,1.1-6.4c0.8-2.1,1.8-4,3.2-5.7  c1.4-1.7,3.1-3,5.1-4.1c2-1,4.2-1.6,6.7-1.6c2,0,3.8,0.3,5.6,0.8c1.8,0.5,3.3,1.3,4.6,2.3c1.3,1,2.3,2.3,3.2,3.9  c0.8,1.6,1.3,3.4,1.4,5.6h-24.4c0,0.4,0,0.9-0.1,1.4c-0.1,0.5-0.1,1.1-0.1,1.6c0,2.1,0.3,4.2,0.9,6.1c0.6,2,1.5,3.7,2.7,5.2  s2.6,2.7,4.4,3.5c1.8,0.9,3.8,1.3,6.2,1.3c2.5,0,4.8-0.6,6.7-1.9c1.9-1.3,3.2-2.9,3.8-4.8l0.6,0.2C375.8,44.7,375.3,46,374.6,47.4z   M365.9,21.7c-1.3-1.3-3-2-5.2-2c-1.4,0-2.7,0.4-3.8,1.3c-1.1,0.8-2.1,1.8-3,2.9c-0.8,1.1-1.5,2.2-1.9,3.4c-0.5,1.1-0.7,2-0.8,2.6  c1.2,0,2.2,0,3.1,0s1.8,0,2.7,0c0.9,0,1.8,0,2.8-0.1c1,0,2,0,3.2,0c0.8,0,1.5,0,2.1-0.1c0.7-0.1,1.2-0.2,1.8-0.4  c0.4-0.4,0.6-0.8,0.8-1.1c0.2-0.4,0.3-0.9,0.3-1.6C367.8,24.7,367.2,23.1,365.9,21.7z"></path>	<path class="st0" d="M326,55.2v-0.8c1.4-0.1,2.5-0.3,3.4-0.5s1.4-0.7,1.4-1.6v-19c0-1.5-0.1-2.8-0.3-4.1c-0.2-1.3-0.6-2.4-1.1-3.3  s-1.3-1.6-2.2-2.1c-0.9-0.5-2.1-0.8-3.5-0.8c-1.8,0-3.4,0.3-4.6,1c-1.3,0.7-2.3,1.5-3,2.7c-0.1,0.2-0.2,0.5-0.4,1  c-0.2,0.5-0.3,0.9-0.3,1.3v23.4c0,0.5,0.1,0.8,0.4,1.1s0.6,0.4,1,0.6c0.4,0.1,0.9,0.2,1.4,0.3s1,0.1,1.5,0.2v0.8h-15.2v-0.8  c1.2-0.1,2.2-0.3,3.2-0.6c0.9-0.3,1.4-0.9,1.4-1.9V8.7c0-0.4,0-0.7-0.1-0.9c-0.1-0.2-0.3-0.4-0.6-0.7c-0.4-0.4-1-0.7-1.6-1  c-0.7-0.3-1.4-0.7-2-1.1V4.5L315-0.1h0.6l-0.2,26.4l0.2,0.1c0.4-0.7,0.9-1.5,1.6-2.4s1.7-1.8,2.8-2.6c1.1-0.8,2.4-1.5,3.8-2.1  s3-0.9,4.7-0.9s3.1,0.3,4.2,0.9s2,1.4,2.7,2.4s1.2,2.3,1.4,3.7s0.4,3,0.4,4.6v22.5c0,0.4,0.2,0.7,0.5,0.9c0.3,0.3,0.7,0.4,1.1,0.6  c0.5,0.1,0.9,0.2,1.4,0.3s1,0.1,1.4,0.2v0.7H326z"></path>	<path class="st0" d="M300.2,23.8h-11.6v20c0,2.6,0.6,4.5,1.7,5.6c1.1,1.2,2.6,1.8,4.3,1.8c1.5,0,2.7-0.2,3.7-0.7s1.8-1.2,2.5-2.2  l0.5,0.2c-0.3,0.8-0.7,1.6-1.3,2.4c-0.5,0.8-1.2,1.6-2.1,2.3s-1.9,1.2-3.1,1.6c-1.2,0.4-2.6,0.6-4.2,0.6c-1.1,0-2.1-0.2-3.1-0.5  s-1.8-0.8-2.6-1.4c-0.8-0.6-1.4-1.3-1.8-2.1c-0.5-0.8-0.7-1.6-0.7-2.4c0-4.8,0-9.3,0.1-13.6c0-4.3,0.1-8.1,0.1-11.5H277V23l11-10.4  h0.6v6.6h14.1L300.2,23.8z"></path>	<path class="st0" d="M275,50.5c-0.4,0.9-0.9,1.7-1.6,2.5c-0.7,0.7-1.4,1.3-2.3,1.7s-1.9,0.6-2.9,0.6c-1.7,0-3.3-0.5-4.6-1.5  c-1.3-1-2-2.8-2-5.3l-0.2-0.1c-0.4,0.7-1,1.4-1.6,2.2c-0.7,0.8-1.5,1.6-2.4,2.3s-2,1.3-3.1,1.7s-2.4,0.6-3.8,0.6  c-0.8,0-1.6-0.1-2.5-0.3c-0.8-0.2-1.6-0.6-2.3-1.2c-0.7-0.6-1.2-1.3-1.7-2.2c-0.4-0.9-0.6-2-0.6-3.3c0-1.4,0.6-2.8,1.7-4.1  c1.1-1.3,2.5-2.5,4.2-3.6s3.2-2,4.5-2.7c1.3-0.8,2.4-1.4,3.4-1.9s1.8-1,2.6-1.4c0.7-0.4,1.4-0.7,1.9-1v-7.8c0-0.1-0.1-0.3-0.3-0.7  c-0.2-0.4-0.5-0.8-0.9-1.2c-0.4-0.4-1-0.8-1.8-1.1c-0.8-0.3-1.8-0.5-3-0.5c-0.8,0-1.6,0.1-2.4,0.4c-0.8,0.3-1.5,0.6-2.1,1.1  c-0.6,0.4-1.1,0.9-1.4,1.3c-0.4,0.4-0.5,0.8-0.5,1.1v3.4c0,0.7-0.4,1.3-1.1,1.9c-0.7,0.6-1.5,0.8-2.4,0.8c-0.8,0-1.5-0.3-2.1-0.9  s-0.9-1.3-0.9-2c0-0.6,0.2-1.2,0.5-1.7s0.7-1,1.1-1.4s1-0.8,1.5-1.1c0.5-0.3,1-0.6,1.4-0.8c1.3-0.8,2.7-1.5,4-2.2  c1.4-0.7,2.7-1.3,3.9-1.8c1.2-0.5,2.4-0.9,3.4-1.2c1-0.3,1.9-0.5,2.5-0.5c1.3,0,2.6,0.3,3.7,1c1.2,0.7,2,1.5,2.5,2.6  c0.2,0.4,0.3,1,0.4,1.9s0.1,1.8,0.1,2.6c0,1.8,0,3.5,0,4.9c0,1.5,0,2.9,0,4.3s0,2.8,0,4.2s0,3,0,4.8c0,2.3,0.4,3.8,1.2,4.5  c0.8,0.7,1.7,1.1,2.7,1.1c1.2,0,2-0.2,2.6-0.7s0.9-1.1,1.1-1.9h0.5C275.6,48.7,275.4,49.6,275,50.5z M261.5,34.5  c-0.9,0.7-2.1,1.4-3.4,2.1c-1.4,0.7-2.7,1.5-4,2.4s-2.4,1.8-3.3,2.9c-0.9,1-1.4,2.2-1.4,3.5s0.5,2.5,1.4,3.6s2.1,1.6,3.6,1.6  c1.3,0,2.5-0.2,3.5-0.5s2-0.9,2.8-1.8c0.6-0.6,0.9-1.3,0.9-2.1V34.5H261.5z"></path>	<path class="st0" d="M236.1,47.4c-0.7,1.4-1.7,2.7-2.9,3.8c-1.2,1.2-2.7,2.1-4.4,2.9c-1.7,0.8-3.6,1.1-5.7,1.1  c-2.6,0-4.9-0.5-7.1-1.4c-2.1-1-3.9-2.3-5.4-4.1s-2.7-3.8-3.5-6.2s-1.2-4.9-1.2-7.5c0-2.1,0.4-4.2,1.1-6.4c0.8-2.1,1.8-4,3.2-5.7  c1.4-1.7,3.1-3,5.1-4.1c2-1,4.2-1.6,6.7-1.6c2,0,3.8,0.3,5.6,0.8s3.3,1.3,4.6,2.3s2.3,2.3,3.2,3.9c0.8,1.6,1.3,3.4,1.4,5.6h-24.4  c0,0.4,0,0.9-0.1,1.4c-0.1,0.5-0.1,1.1-0.1,1.6c0,2.1,0.3,4.2,0.9,6.1c0.6,2,1.5,3.7,2.7,5.2s2.6,2.7,4.4,3.5  c1.8,0.9,3.8,1.3,6.2,1.3c2.5,0,4.8-0.6,6.7-1.9c1.9-1.3,3.2-2.9,3.8-4.8l0.6,0.2C237.3,44.7,236.8,46,236.1,47.4z M227.4,21.7  c-1.3-1.3-3-2-5.2-2c-1.4,0-2.7,0.4-3.8,1.3c-1.1,0.8-2.1,1.8-3,2.9c-0.8,1.1-1.5,2.2-1.9,3.4c-0.5,1.1-0.7,2-0.8,2.6  c1.2,0,2.2,0,3.1,0c0.9,0,1.8,0,2.7,0s1.8,0,2.8-0.1c1,0,2,0,3.2,0c0.8,0,1.5,0,2.1-0.1c0.7-0.1,1.2-0.2,1.8-0.4  c0.4-0.4,0.6-0.8,0.8-1.1c0.2-0.4,0.3-0.9,0.3-1.6C229.4,24.7,228.7,23.1,227.4,21.7z"></path>	<path class="st0" d="M214.2,2.2c-1,0.6-1.5,0.9-1.7,1.1c-0.2,0.2-0.4,0.4-0.8,0.8c-0.3,0.4-0.8,0.9-1.2,1.5c-0.5,0.6-1,1.4-1.6,2.4  s-1.2,2.2-1.9,3.7c-1.1,2.5-2.4,5.2-3.8,8.3c-1.4,3-2.9,6.1-4.4,9.3s-3,6.4-4.5,9.6s-2.9,6.3-4.2,9.2l-4.1,7.3h-0.8  c-0.9-3.7-1.8-7.2-2.6-10.5s-1.5-6.6-2.2-9.7c-0.7-3.1-1.4-6.1-2.1-9c-0.7-2.9-1.3-5.8-2.1-8.6c-1.1,2.3-2.3,4.8-3.5,7.3  c-1.2,2.6-2.5,5.2-3.7,7.8s-2.5,5.2-3.7,7.8s-2.4,5-3.6,7.4l-4.3,7.5h-0.9c-1.1-4.1-2.1-8-3-11.7s-1.8-7.3-2.7-10.7  s-1.7-6.7-2.5-10c-0.8-3.2-1.6-6.4-2.5-9.6c-0.2-1-0.5-1.8-0.6-2.5c-0.2-0.7-0.4-1.4-0.5-2c-0.2-0.6-0.3-1.2-0.5-1.8  s-0.4-1.1-0.6-1.8c-0.1-0.3-0.3-0.7-0.5-1.1c-0.2-0.5-0.6-0.9-1-1.3c-0.5-0.4-1-0.8-1.7-1.1s-1.6-0.5-2.7-0.6l0.1-0.8h21.5  l-0.1,0.8c-0.3,0-0.7,0.1-1.3,0.2s-1.3,0.3-2,0.5c-0.7,0.3-1.3,0.6-1.9,1.1c-0.5,0.5-0.9,1.2-1,2.1c-0.1,0.5,0.1,1.5,0.4,3.2  c0.3,1.7,0.8,3.7,1.4,6c0.6,2.4,1.2,4.9,1.9,7.7s1.4,5.5,2.1,8.3c0.7,2.7,1.4,5.3,2,7.6c0.6,2.4,1.1,4.3,1.5,5.8  c0.2-0.4,0.7-1.5,1.5-3.2s1.8-3.8,3.1-6.4c1.2-2.6,2.6-5.5,4.1-8.7s3-6.6,4.6-10.1c-0.5-2-1-3.8-1.4-5.4c-0.4-1.5-0.9-3.1-1.4-4.5  c-0.2-0.4-0.4-0.8-0.6-1.3c-0.3-0.5-0.7-0.9-1.2-1.3s-1.2-0.8-2-1.1s-1.8-0.4-3.1-0.5l0.1-0.8h23.8l-0.1,0.8  c-0.3,0.1-0.9,0.1-1.7,0.2s-1.6,0.3-2.4,0.6c-0.8,0.3-1.6,0.7-2.3,1.2s-1.1,1.1-1.2,1.9c0,0.3,0.1,1.3,0.5,3.1  c0.3,1.8,0.8,3.9,1.3,6.4c0.6,2.5,1.2,5.2,1.9,8.2c0.7,2.9,1.4,5.8,2,8.5s1.2,5.2,1.7,7.3c0.5,2.2,0.9,3.7,1.1,4.7  c0.2-0.4,0.6-1.1,1.1-2.2c0.5-1.1,1.2-2.5,2-4.2c0.8-1.6,1.6-3.5,2.6-5.5c0.9-2,1.9-4.1,2.8-6.2c0.9-2.1,1.9-4.2,2.8-6.3  c0.9-2.1,1.8-4.1,2.6-5.9c1-2.3,1.6-4,1.8-5.1s0.4-1.9,0.4-2.4c0.1-0.8-0.1-1.4-0.5-1.9s-0.9-0.9-1.5-1.2s-1.3-0.6-2-0.8  s-1.4-0.3-2-0.3l0.1-0.8h16.7l-0.1,0.8C216.3,1.3,215.1,1.6,214.2,2.2z"></path>	<path class="st0" d="M136.1,47.4c-0.7,1.4-1.7,2.7-3,3.8c-1.3,1.2-2.8,2.1-4.6,2.9c-1.8,0.8-3.7,1.1-5.9,1.1  c-2.7,0-5.1-0.5-7.4-1.4c-2.2-1-4.1-2.3-5.7-4.1s-2.8-3.8-3.6-6.2c-0.8-2.4-1.3-4.9-1.3-7.5c0-2.1,0.4-4.2,1.2-6.4  c0.8-2.1,1.9-4,3.4-5.7c1.5-1.7,3.2-3,5.3-4.1c2.1-1,4.4-1.6,6.9-1.6c2.1,0,4,0.3,5.8,0.8c1.8,0.5,3.4,1.3,4.8,2.3  c1.3,1,2.4,2.3,3.3,3.9c0.8,1.6,1.3,3.4,1.5,5.6h-25.4c0,0.4,0,0.9-0.1,1.4c-0.1,0.5-0.1,1.1-0.1,1.6c0,2.1,0.3,4.2,1,6.1  c0.6,2,1.6,3.7,2.8,5.2c1.2,1.5,2.7,2.7,4.6,3.5c1.8,0.9,4,1.3,6.4,1.3c2.6,0,4.9-0.6,6.9-1.9c2-1.3,3.3-2.9,3.9-4.8l0.6,0.2  C137.3,44.7,136.9,46,136.1,47.4z M127.1,21.7c-1.3-1.3-3.2-2-5.4-2c-1.5,0-2.8,0.4-4,1.3c-1.2,0.8-2.2,1.8-3.1,2.9s-1.5,2.2-2,3.4  c-0.5,1.1-0.8,2-0.9,2.6c1.2,0,2.3,0,3.2,0s1.9,0,2.8,0s1.9,0,2.9-0.1c1,0,2.1,0,3.3,0c0.8,0,1.5,0,2.2-0.1s1.3-0.2,1.8-0.4  c0.4-0.4,0.6-0.8,0.8-1.1c0.2-0.4,0.3-0.9,0.3-1.6C129.1,24.7,128.4,23.1,127.1,21.7z"></path>	<path class="st0" d="M85.4,55.2v-0.8c1.4-0.1,2.6-0.3,3.6-0.5s1.4-0.7,1.4-1.6v-19c0-1.5-0.1-2.8-0.3-4.1c-0.2-1.3-0.6-2.4-1.1-3.3  c-0.6-0.9-1.3-1.6-2.3-2.1c-1-0.6-2.2-0.8-3.7-0.8c-1.9,0-3.5,0.3-4.8,1s-2.4,1.5-3.2,2.7c-0.1,0.2-0.3,0.5-0.4,1  c-0.2,0.5-0.3,0.9-0.3,1.3v23.4c0,0.5,0.1,0.8,0.4,1.1s0.6,0.4,1,0.6c0.4,0.1,0.9,0.2,1.4,0.3s1.1,0.1,1.6,0.2v0.8H63v-0.8  c1.2-0.1,2.3-0.3,3.3-0.6s1.5-0.9,1.5-1.9V8.7c0-0.4,0-0.7-0.1-0.9c-0.1-0.2-0.3-0.4-0.7-0.7c-0.4-0.4-1-0.7-1.7-1S63.9,5.4,63.2,5  V4.5l10.6-4.6h0.6l-0.2,26.4l0.2,0.1c0.4-0.7,0.9-1.5,1.7-2.4c0.8-0.9,1.7-1.8,2.9-2.6c1.2-0.8,2.5-1.5,4-2.1s3.1-0.9,4.9-0.9  c1.7,0,3.2,0.3,4.4,0.9c1.2,0.6,2.1,1.4,2.8,2.4c0.7,1,1.2,2.3,1.5,3.7s0.4,3,0.4,4.6v22.5c0,0.4,0.2,0.7,0.5,0.9  c0.3,0.3,0.7,0.4,1.2,0.6c0.5,0.1,1,0.2,1.5,0.3s1,0.1,1.5,0.2v0.7H85.4z"></path>	<path class="st0" d="M59.4,14.7c-0.4-0.9-0.9-1.9-1.5-2.9S56.7,9.9,56.1,9c-0.6-0.9-1.2-1.7-1.8-2.4S53.2,5.3,52.8,5  c-1.1-1-2.3-1.7-3.6-2s-2.9-0.5-4.9-0.6c-1,0-1.9,0-2.6,0c-0.7,0-1.5,0-2.2,0s-1.5,0-2.3,0s-1.8,0-2.9,0c0,1.3,0,3,0,5.2  s0,4.5,0,6.9s0,4.7,0,7.1c0,2.3,0,4.2,0,5.8v16.9c0,1.5,0,2.9,0.1,4.2s0.3,2.3,0.8,2.9c0.8,1.1,1.9,1.9,3.4,2.3  c1.5,0.4,2.8,0.7,3.9,0.9v0.8H16.6v-0.8c1.4-0.2,2.7-0.4,4-0.8c1.3-0.4,2.5-1.2,3.7-2.5c0.3-0.3,0.5-0.7,0.6-1.3s0.2-1.2,0.3-2  c0.1-0.7,0.1-1.5,0.2-2.4c0-0.9,0-1.7,0-2.5c0-0.7,0-1.6,0-2.8s0.1-2.5,0.1-3.9s0-2.9,0-4.4c0-1.5,0-3,0-4.3V2.3  c-1.1,0-2.1,0-2.9,0s-1.6,0-2.3,0c-0.7,0-1.4,0-2.2,0c-0.8,0-1.7,0-2.7,0c-2,0.1-3.7,0.3-4.9,0.7C9.2,3.5,8,4.2,6.9,5.2  C6.5,5.6,6,6.1,5.5,6.8C4.9,7.5,4.3,8.3,3.7,9.2C3.1,10,2.5,10.9,2,11.9c-0.6,1-1,1.9-1.3,2.8L0,14.5L2.3,0  c1.2,0.3,2.3,0.5,3.4,0.6s2.5,0.3,4.5,0.3c2,0,3.8,0.1,5.3,0.1c1.6,0,3.1,0,4.6,0s3,0,4.5,0C26.2,1,28,1,30,1s3.7,0,5.2,0  c1.6,0,3.1,0,4.6,0s3,0,4.6-0.1c1.6,0,3.4,0,5.4,0c1.7,0,3.2-0.2,4.3-0.4s2.3-0.5,3.5-0.9l2.5,14.8L59.4,14.7z"></path></g></svg>