<svg xmlns="http://www.w3.org/2000/svg" width="72" height="47.36" viewBox="0 0 72 47.36">
  <path id="salesforce_Icon" d="M36.056,47.36V38.29a9.529,9.529,0,0,0,7.377-3.342,10.154,10.154,0,0,0,2.618-7.8H36.006V18.1H46.051A19.786,19.786,0,0,1,51.368,5.585,19.565,19.565,0,0,1,63.3,0H72V8.921H63.995a8.937,8.937,0,0,0-6.049,2.959,8.886,8.886,0,0,0-2.6,6.224H72v9.045H55.347a19.473,19.473,0,0,1-5.107,13.81,20.243,20.243,0,0,1-14.149,6.4ZM63.009,42.8A4.492,4.492,0,1,1,67.5,47.3,4.5,4.5,0,0,1,63.009,42.8ZM11.165,47.115H0V38.472H11.226c1.1-.025,3.448-.254,6.158-3.047a10.435,10.435,0,0,0,2.767-6.482l-.035-8.823s-.47-7.743,6.7-14.508A20.694,20.694,0,0,1,42.756.1V8.945A12.947,12.947,0,0,0,33.5,11.719a12.7,12.7,0,0,0-4.2,8.4v8.823a18.145,18.145,0,0,1-5.354,12.676,17.584,17.584,0,0,1-12.367,5.507C11.314,47.126,11.165,47.115,11.165,47.115Z" fill="#0f0b0c"/>
</svg>
