<svg xmlns="http://www.w3.org/2000/svg" width="321.378" height="70.47" viewBox="0 0 321.378 70.47">
  <path id="signifidigital-logo" d="M35.234,70.47a35.2,35.2,0,0,1-17.552-4.655h35.1a35.2,35.2,0,0,1-17.5,4.655ZM17.608,58.221H8.471c-.46-.533-.911-1.088-1.339-1.645h56.2a35.572,35.572,0,0,1-4.243,4.643l-37.581.014Zm116.43.242a7.629,7.629,0,0,1-2.826-2.28,7.221,7.221,0,0,1-1.407-3.315h4.667a2.648,2.648,0,0,0,.673,1.5c1.078,1.24,3.023,1.5,4.465,1.5.163,0,.332,0,.5-.01,2.191-.251,3.371-.867,4.071-2.125.677-1.217.922-3.1.847-6.494l0,.007a6.692,6.692,0,0,1-1.3,1.589,7.954,7.954,0,0,1-4.4,2,8.849,8.849,0,0,1-1.106.069,8.708,8.708,0,0,1-6.246-2.568c-1.958-1.977-2.975-4.929-2.939-8.538a10.773,10.773,0,0,1,3.161-7.981,9.471,9.471,0,0,1,6.429-2.55,8.7,8.7,0,0,1,.936.049,6.68,6.68,0,0,1,4.167,1.8,6.1,6.1,0,0,1,1.231,1.586V29.835h4.728V50.322a9.139,9.139,0,0,1-2.064,6.068c-1.6,1.84-4.036,2.874-7.226,3.072-.4.025-.793.037-1.173.037A11.978,11.978,0,0,1,134.038,58.463ZM135.213,35.1a8.631,8.631,0,0,0-1.366,5.006,8.657,8.657,0,0,0,1.366,4.96,4.893,4.893,0,0,0,4.161,2.108h.123a4.793,4.793,0,0,0,4.13-2.184,9.067,9.067,0,0,0,1.273-5.017,8.746,8.746,0,0,0-1.273-4.943,4.717,4.717,0,0,0-4.132-2.065h-.035A5.013,5.013,0,0,0,135.213,35.1Zm116.3,23.317a7.643,7.643,0,0,1-2.826-2.279,7.228,7.228,0,0,1-1.407-3.315h4.666a2.665,2.665,0,0,0,.673,1.5c1.078,1.24,3.023,1.5,4.465,1.5.163,0,.332,0,.5-.009,2.192-.252,3.371-.867,4.071-2.125.677-1.217.922-3.1.847-6.494a.018.018,0,0,1,0,.007,6.721,6.721,0,0,1-1.3,1.589,7.967,7.967,0,0,1-4.4,2,8.848,8.848,0,0,1-1.106.069,8.71,8.71,0,0,1-6.246-2.568c-1.958-1.977-2.975-4.93-2.939-8.538a10.774,10.774,0,0,1,3.162-7.981,9.469,9.469,0,0,1,6.428-2.551,8.688,8.688,0,0,1,.936.05,6.685,6.685,0,0,1,4.167,1.8,6.051,6.051,0,0,1,1.231,1.587V29.788h4.728V50.275a9.13,9.13,0,0,1-2.064,6.067c-1.6,1.841-4.036,2.875-7.226,3.073-.4.024-.793.037-1.173.037A11.964,11.964,0,0,1,251.518,58.415Zm1.175-23.364a8.629,8.629,0,0,0-1.366,5.006,8.657,8.657,0,0,0,1.366,4.96,4.893,4.893,0,0,0,4.161,2.108h.123a4.8,4.8,0,0,0,4.13-2.184,9.067,9.067,0,0,0,1.273-5.018,8.744,8.744,0,0,0-1.273-4.943,4.716,4.716,0,0,0-4.132-2.065h-.035A5.015,5.015,0,0,0,252.693,35.051ZM21.825,51.972l-3.756-2.994H2.713c-.27-.634-.525-1.286-.754-1.934H68.509a35.084,35.084,0,0,1-2.2,4.926v0ZM98.687,50.2c-5.332-2.64-5.386-8.884-5.386-8.884h5.133C98.015,48.6,111.447,50,112.042,43.16c.677-7.331-17.754-2.495-17.587-13.957-.077-5.569,7.1-9.9,15.153-7.528a9.036,9.036,0,0,1,6.788,8.689h-5.114s-.045-3.188-2.439-4.318c-3.25-1.54-8.9-.866-9.257,2.76-.673,6.869,17.979,2.4,17.6,14.219-.536,6.157-6.176,8.653-11.62,8.653A15.888,15.888,0,0,1,98.687,50.2Zm194.439-4.026c-.318-2.763.508-4.686,2.524-5.881,1.758-1.04,4.189-1.39,6.333-1.7,3.01-.433,5.611-.806,5.625-2.862a2.141,2.141,0,0,0-.536-1.561c-.7-.81-1.986-1.227-3.82-1.238h-.065a5.032,5.032,0,0,0-3.716,1.231,3.176,3.176,0,0,0-.909,2.077h-4.68a7.069,7.069,0,0,1,2.005-4.605c1.61-1.621,4.031-2.443,7.2-2.443h.167c3.389.031,5.861.883,7.343,2.534a5.707,5.707,0,0,1,1.439,4l-.05,9.818c0,.014-.129,1.453.435,2a1.4,1.4,0,0,0,1.006.314,3.683,3.683,0,0,0,.837-.105V51l-.006,0a10.258,10.258,0,0,1-2.957.5A4.353,4.353,0,0,1,309.071,51a2.916,2.916,0,0,1-1.371-2.065c-.525.877-4.236,2.628-7.73,2.628C297.4,51.558,294.127,50.625,293.126,46.179ZM305.212,41.1c-.373.087-.874.154-1.454.231-1.961.26-4.646.617-5.591,2.182a3.1,3.1,0,0,0-.048,2.749c.482,1.238,2.229,1.68,3.7,1.68a6.307,6.307,0,0,0,4.367-1.488c1.642-1.559,1.2-5.981,1.187-6.067h0S307.341,40.6,305.212,41.1Zm11.457,10.031V21.689h4.71v29.44ZM282.456,42.9V33.278H278.9V29.793h3.553V23.425h4.7v6.367H291.3v3.486h-4.139V42.9c-.02,3.947-.3,4.97,4.208,4.369v3.548c-1.723.13-3.188.308-4.4.308C283.7,51.129,282.252,49.846,282.456,42.9Zm-59.78,8.16H209.612V21.689h13.051a12.581,12.581,0,0,1,8.472,3.534c2.493,2.561,3.692,6.322,3.562,11.178a19.116,19.116,0,0,1-1.892,8.329,11.553,11.553,0,0,1-3.87,4.37,11.961,11.961,0,0,1-6.258,1.966Zm-7.965-4.27h7.253s.032,0,.093,0a6.84,6.84,0,0,0,4.034-1.439,7.894,7.894,0,0,0,2.374-3.137,15.234,15.234,0,0,0,1.1-5.937c.039-3.563-.861-6.3-2.675-8.133a8.572,8.572,0,0,0-5.83-2.416h-6.349Zm57.074,4.222V29.82h4.71v21.2Zm-33.486,0V29.82h4.593v21.2Zm-38.6,0V29.82h4.647v21.2Zm-11.758,0V33.291H184.51V29.8h3.436c-1.467-10.588,8.521-7.918,9.233-7.773v3.628c-4.5-.6-4.552.2-4.532,4.145h4v3.49h-4V51.017Zm-10.76,0V29.82h4.677v21.2Zm-9.292,0V37.951s.494-5.318-4.236-5.078-4.937,5.078-4.937,5.078V51.017h-4.754V29.754h4.456v3.211a8.386,8.386,0,0,1,9.268-3.439c5.221,1.256,4.991,6.549,4.991,6.549V51.017Zm-47.158-.011v-21.2h4.676v21.2ZM69.8,42.442h0Zm-48.268,0-3.82-2.992H.176C.1,38.812.041,38.16,0,37.516H70.467a35.342,35.342,0,0,1-.67,4.927Zm48.93-9.529h.012Zm-48.93,0-3.82-2.992H.329c.1-.649.223-1.3.35-1.935H69.791a35.208,35.208,0,0,1,.67,4.927Zm250.256-6.737V21.689h4.71v4.487Zm-33.486,0V21.689h4.593v4.487Zm-38.6,0V21.689h4.647v4.487Zm-22.517,0V21.689h4.677v4.487Zm-56.451-.011V21.677h4.676v4.488ZM68.49,23.383H68.5l-.007,0Zm-47.011,0-3.755-2.992H3.21c.259-.555.536-1.114.822-1.645H66.44a35.056,35.056,0,0,1,2.05,4.637Zm42.03-9.239h0v0Zm-43.084,0-2.882-2.987H9.472c.627-.67,1.288-1.32,1.965-1.935H59.031a35.45,35.45,0,0,1,4.478,4.922Zm32.268-9.53H17.772a35.354,35.354,0,0,1,34.924,0Z" transform="translate(0 0)" fill="#fff"/>
</svg>
