<svg xmlns="http://www.w3.org/2000/svg" width="996.017" height="134.806" viewBox="0 0 996.017 134.806">
  <g id="xcelerate-logo" transform="translate(-795.951 -690)">
    <path id="Union_1" data-name="Union 1" d="M85.588,132.788V76.631L29.826,132.788H0V102.693L55.547,47.171H0V.152H39.094L84.953,46.184V0h47.27V48.145H86.907l45.238,45.409v39.234Z" transform="translate(795.951 690)" fill="#222427"/>
    <path id="Path_2" data-name="Path 2" d="M983.84,425.173l43.828,65.952-45.129,66.386h27.63l31.871-48.623,30.458,48.623h27.694l-43.958-66.386,43.788-65.952H1072.6l-30.558,48.651-30.85-48.651Z" transform="translate(-23.255 264.978)" fill="#222427"/>
    <path id="Path_3" data-name="Path 3" d="M1182.015,506.4h22.175s-2.4-35.233-42.969-34.881c-16.635.144-43.2,6.966-44.922,46.957,1.139,36.617,25.151,46.54,44.922,46.6,39.542.111,42.969-34.659,42.969-34.659h-22.175a19.043,19.043,0,0,1-11.109,13.475c-10.1,4.878-32.777,2.5-32.539-25.411.22-25.764,19.8-30.78,32.539-25.918C1180.456,496.286,1182.015,506.4,1182.015,506.4Z" transform="translate(-39.927 259.202)" fill="#222427"/>
    <path id="Exclusion_1" data-name="Exclusion 1" d="M44.659,93.8h0A46.211,46.211,0,0,1,26.7,90.328,41.669,41.669,0,0,1,13.036,81.07,46.734,46.734,0,0,1,.006,47.642,65.162,65.162,0,0,1,2.79,29.19a43.1,43.1,0,0,1,8.126-15.126A37.324,37.324,0,0,1,24.985,3.817,53.3,53.3,0,0,1,45.6,0C59.244.539,69.829,5.086,77.06,13.517a41.334,41.334,0,0,1,7.263,12.574,57.063,57.063,0,0,1,3.033,12.57,62.634,62.634,0,0,1,.338,13.533H20.166a34.548,34.548,0,0,0,3.527,12,22.671,22.671,0,0,0,6.983,8.252A21.661,21.661,0,0,0,43.426,76.2c.707,0,1.439-.026,2.174-.078.16,0,.321,0,.478,0a27.729,27.729,0,0,0,10.817-2,20.124,20.124,0,0,0,6.55-4.4,17.191,17.191,0,0,0,4.1-6.4H87.12v.01a26.388,26.388,0,0,1-1.094,4.438,35.724,35.724,0,0,1-17,20.288,50.591,50.591,0,0,1-21.407,5.648C46.626,93.77,45.631,93.8,44.659,93.8ZM43.85,17.249a23.108,23.108,0,0,0-12.432,3.279,21.57,21.57,0,0,0-7,7.215,28.819,28.819,0,0,0-3.772,10.494H66.384a25.3,25.3,0,0,0-2.811-10.3,19.173,19.173,0,0,0-6.48-7.188,23.556,23.556,0,0,0-12.5-3.49C44.345,17.252,44.1,17.249,43.85,17.249Z" transform="translate(1173.622 730.742)" fill="#222427"/>
    <rect id="Rectangle_2" data-name="Rectangle 2" width="22.759" height="133.056" transform="translate(1276.569 690)" fill="#222427"/>
    <path id="Exclusion_2" data-name="Exclusion 2" d="M44.659,93.8h0A46.211,46.211,0,0,1,26.7,90.328,41.669,41.669,0,0,1,13.036,81.07,46.734,46.734,0,0,1,.006,47.642,65.162,65.162,0,0,1,2.79,29.19a43.1,43.1,0,0,1,8.126-15.126A37.324,37.324,0,0,1,24.985,3.817,53.3,53.3,0,0,1,45.6,0C59.244.539,69.829,5.086,77.06,13.517a41.334,41.334,0,0,1,7.263,12.574,57.063,57.063,0,0,1,3.033,12.57,62.634,62.634,0,0,1,.338,13.533H20.166a34.548,34.548,0,0,0,3.527,12,22.671,22.671,0,0,0,6.983,8.252A21.661,21.661,0,0,0,43.426,76.2c.707,0,1.439-.026,2.174-.078.16,0,.321,0,.478,0a27.729,27.729,0,0,0,10.817-2,20.124,20.124,0,0,0,6.55-4.4,17.191,17.191,0,0,0,4.1-6.4H87.12v.01a26.388,26.388,0,0,1-1.094,4.438,35.724,35.724,0,0,1-17,20.288,50.591,50.591,0,0,1-21.407,5.648C46.626,93.77,45.631,93.8,44.659,93.8ZM43.85,17.249a23.108,23.108,0,0,0-12.432,3.279,21.57,21.57,0,0,0-7,7.215,28.819,28.819,0,0,0-3.772,10.494H66.384a25.3,25.3,0,0,0-2.811-10.3,19.173,19.173,0,0,0-6.48-7.188,23.556,23.556,0,0,0-12.5-3.49C44.345,17.252,44.1,17.249,43.85,17.249Z" transform="translate(1313.496 730.742)" fill="#222427"/>
    <path id="Path_8" data-name="Path 8" d="M1505.428,474.074v89.4h22.039V518.352s-.564-13.683,8.641-19.631c9-6.441,25.306-4.407,25.306-4.407v-20.24s-11.265-3.38-19.752,0a25.11,25.11,0,0,0-14.2,13.519l-1.783-13.519Z" transform="translate(-88.425 259.071)" fill="#222427"/>
    <path id="Exclusion_3" data-name="Exclusion 3" d="M30.468,93.587h0c-7.912,0-15.257-2.338-20.682-6.582C3.769,82.3.4,75.524.039,67.414A30.6,30.6,0,0,1,1.4,56.363a21.861,21.861,0,0,1,4.65-7.928,26.891,26.891,0,0,1,8.549-6.054,47.676,47.676,0,0,1,10.6-3.354c7.446-1.531,15.476-1.849,21.928-2.1,5.406-.214,10.075-.4,12.639-1.228a17.858,17.858,0,0,0,.3-4.335,17.236,17.236,0,0,0-.691-4.164,13.791,13.791,0,0,0-2.2-4.38C54.231,18.94,49.222,16.8,42.278,16.46c-.67-.033-1.335-.05-1.976-.05-6.629,0-11.719,1.745-15.129,5.188a15.262,15.262,0,0,0-3.846,6.778A14.114,14.114,0,0,0,20.8,31.8H2.567v-.009a28.947,28.947,0,0,1,.612-4.96A35.066,35.066,0,0,1,7.37,15.9,30.133,30.133,0,0,1,18.678,4.969C24.593,1.672,31.981,0,40.638,0c.737,0,1.495.012,2.251.036C55.912.2,65.838,3.906,72.392,11.042a30.355,30.355,0,0,1,5.291,8.074,35.652,35.652,0,0,1,2.455,7.762,34.2,34.2,0,0,1,.681,8.143V91.484H61.977l-1.249-13.2,0,.008a30.84,30.84,0,0,1-5.851,6.621,34.693,34.693,0,0,1-18.507,8.243A40.827,40.827,0,0,1,30.468,93.587ZM59.6,50.1c-2.306,1.147-6.722,1.418-11.837,1.732A93.345,93.345,0,0,0,34,53.368c-5.006,1.1-8.363,2.877-10.262,5.441a9.386,9.386,0,0,0-1.729,4.257,15.457,15.457,0,0,0,.389,5.818,13.864,13.864,0,0,0,6.074,6.678,17.383,17.383,0,0,0,8.388,1.95A27.852,27.852,0,0,0,47.85,75.1a18.7,18.7,0,0,0,7.514-5.5,17.132,17.132,0,0,0,3.373-6.129,26.355,26.355,0,0,0,1.154-6.359A32.513,32.513,0,0,0,59.6,50.1Z" transform="translate(1480.13 730.767)" fill="#222427"/>
    <path id="Path_11" data-name="Path 11" d="M1697.262,442.137v28.724h-17.114v17.9h17.114V559.29h22.492V488.765h16.454v-17.9h-16.454V442.137Z" transform="translate(-110.202 262.864)" fill="#222427"/>
    <path id="Exclusion_11" data-name="Exclusion 11" d="M44.206,93.664A41.811,41.811,0,0,1,27,89.984,44.011,44.011,0,0,1,12.948,79.947,46.923,46.923,0,0,1,3.474,65.061a49.565,49.565,0,0,1,0-36.458,46.923,46.923,0,0,1,9.474-14.886A44.011,44.011,0,0,1,27,3.68a42.065,42.065,0,0,1,34.414,0A44.011,44.011,0,0,1,75.464,13.717,46.923,46.923,0,0,1,84.938,28.6a49.565,49.565,0,0,1,0,36.458,46.923,46.923,0,0,1-9.474,14.886A44.011,44.011,0,0,1,61.413,89.984,41.811,41.811,0,0,1,44.206,93.664Zm0-75.282a22.185,22.185,0,0,0-9.711,2.236,24.962,24.962,0,0,0-7.93,6.1,28.866,28.866,0,0,0-5.347,9.043,32.254,32.254,0,0,0,0,22.148,28.867,28.867,0,0,0,5.347,9.043,24.963,24.963,0,0,0,7.93,6.1,22.207,22.207,0,0,0,19.422,0,24.963,24.963,0,0,0,7.93-6.1,28.867,28.867,0,0,0,5.347-9.043,32.254,32.254,0,0,0,0-22.148,28.866,28.866,0,0,0-5.347-9.043,24.963,24.963,0,0,0-7.93-6.1A22.185,22.185,0,0,0,44.206,18.382Z" transform="translate(1631.968 731.142)" fill="#222427"/>
    <path id="Path_54" data-name="Path 54" d="M1505.428,474.074v89.4h22.039V518.352s-.564-13.683,8.641-19.631c9-6.441,25.306-4.407,25.306-4.407v-20.24s-11.265-3.38-19.752,0a25.11,25.11,0,0,0-14.2,13.519l-1.783-13.519Z" transform="translate(230.553 260.802)" fill="#222427"/>
  </g>
</svg>
